<svg width="14" height="15" viewBox="0 0 14 15" fill="none" xmlns="http://www.w3.org/2000/svg">
<path d="M7.91002 1.38671C9.07543 1.54003 10.1727 2.02322 11.0727 2.77938C11.298 2.96871 11.2967 3.30871 11.0887 3.51671L10.0114 4.59405C9.80336 4.80205 9.46736 4.79805 9.23069 4.62338C8.64034 4.18719 7.93008 3.94318 7.19631 3.92449C6.46253 3.9058 5.74077 4.11332 5.12897 4.51889C4.51718 4.92446 4.04498 5.50845 3.77647 6.19158C3.50795 6.87472 3.45612 7.62393 3.628 8.33754C3.79988 9.05115 4.18716 9.69459 4.73727 10.1805C5.28738 10.6665 5.97369 10.9714 6.70305 11.054C7.43241 11.1365 8.1695 10.9927 8.8143 10.6419C9.45909 10.2912 9.98036 9.75053 10.3074 9.09338H7.70069C7.55924 9.09338 7.42359 9.03719 7.32357 8.93717C7.22355 8.83715 7.16736 8.7015 7.16736 8.56005V7.03338C7.16736 6.89193 7.22355 6.75628 7.32357 6.65626C7.42359 6.55624 7.55924 6.50005 7.70069 6.50005H12.696C12.9067 6.50005 13.1027 6.62405 13.15 6.83005C13.3587 7.73805 13.0667 8.99405 13.0447 9.08605L13.042 9.09671C12.69 10.4054 11.9347 11.5674 10.8594 12.3927C10.0548 13.01 9.11042 13.4193 8.10989 13.5844C7.10936 13.7495 6.08355 13.6654 5.12332 13.3394C4.16308 13.0134 3.29806 12.4556 2.60486 11.7155C1.91167 10.9753 1.41169 10.0757 1.14923 9.09615C0.886757 8.11664 0.869895 7.08752 1.10013 6.09994C1.33037 5.11236 1.8006 4.19679 2.46918 3.43434C3.13775 2.67189 3.98404 2.08608 4.93308 1.7288C5.88212 1.37152 6.90462 1.25446 7.91002 1.38671Z" stroke="#E6E6E6" stroke-linecap="round" stroke-linejoin="round"/>
</svg>
